<?xml version="1.0" encoding="UTF-8" standalone="no"?>
<!-- Created with Inkscape (http://www.inkscape.org/) -->

<svg
   xmlns:dc="http://purl.org/dc/elements/1.1/"
   xmlns:cc="http://creativecommons.org/ns#"
   xmlns:rdf="http://www.w3.org/1999/02/22-rdf-syntax-ns#"
   xmlns:svg="http://www.w3.org/2000/svg"
   xmlns="http://www.w3.org/2000/svg"
   version="1.1"
   width="957.85986"
   height="680.34119"
   id="svg5393">
  <defs
     id="defs5395" />
  <metadata
     id="metadata5399">
    <rdf:RDF>
      <cc:Work
         rdf:about="">
        <dc:format>image/svg+xml</dc:format>
        <dc:type
           rdf:resource="http://purl.org/dc/dcmitype/StillImage" />
        <dc:title></dc:title>
      </cc:Work>
    </rdf:RDF>
  </metadata>
  <g
     transform="translate(-39.970432,-31.783765)"
     id="layer1">
    <g
       transform="matrix(1.4953452,0,0,1.4953452,1589.0968,-262.65106)"
       id="g5310">
      <g
         transform="translate(-584.38227,-197.75191)"
         id="g3239">
        <path
           d="m -218.22141,778.57972 c -33.99788,-11.17788 -21.17046,-45.18524 -12.36981,-85.96819 0.69136,-10.51813 -5.01095,-20.29227 -5.3014,-30.79585 -5.00637,-22.63379 -9.13736,-45.77216 -9.00484,-69.01011 0.23642,-17.97852 -1.50259,-36.3846 4.92434,-53.65623 2.60992,-15.38174 16.12187,-25.9076 18.0971,-41.56921 -1.33361,-11.18891 -8.82981,-21.62519 -7.0252,-33.9692 -0.42089,-10.91679 7.87498,-20.83463 3.01488,-32.40077 -5.57357,-10.35515 -20.90069,-23.89372 -17.06749,-35.04484 12.82029,-0.45041 23.63573,6.42808 34.97947,10.9705 15.09572,5.99974 20.78669,-10.45088 45.80628,-1.18552 15.45558,7.27206 26.20267,-4.74516 41.69251,-4.55756 16.29271,-1.98091 23.229172,13.61595 34.534246,6.2491 12.486495,-5.15253 22.381094,-11.15188 35.438372,-12.98867 15.873603,-0.12818 -12.383392,34.62852 -15.794734,39.28914 -9.073527,11.49514 6.588993,27.74495 1.179103,42.77141 -2.424636,10.07725 -3.418338,20.18163 -1.399822,30.46434 1.183388,17.77947 3.692972,35.5442 7.543969,52.82295 2.69412,16.06392 1.945638,31.92081 -1.542205,47.76549 -4.007612,22.62543 -4.971775,45.81411 -8.626725,68.40085 30.470035,139.53461 -158.641104,69.34756 -149.078044,102.41237 z m 131.636485,-43.91514 c -1.808353,-15.71533 19.43636,-0.81563 7.141281,-62.70671 12.276525,-34.77565 2.254416,-65.68741 1.361335,-97.25107 -2.242234,-14.7061 -7.98995,-27.10915 -17.482169,-37.7927 2.46944,-14.91 13.538731,14.23852 16.401072,-1.7278 2.165052,-8.09734 -5.601769,-11.59415 -10.87536,-13.78302 -2.430957,-0.49082 -48.007464,-24.93006 -34.829324,-19.39051 1.74098,0.73184 8.89262,6.36554 17.24077,5.79639 14.206935,3.35271 35.355877,-7.90728 38.098124,-24.70156 4.888622,-18.07514 0.438586,-28.78019 -3.986655,-37.45661 -4.140031,-9.05506 -24.54996,-14.92489 -15.90482,9.70246 2.837089,4.71721 4.029803,14.7574 4.994535,15.68785 -4.685673,3.04548 -3.571579,9.84032 -8.41607,12.72962 4.613678,11.18458 -10.518514,2.56693 0.94156,-6.35897 7.644239,-9.57405 2.165885,-24.27468 -9.386084,-26.76781 -8.61733,0.48328 -20.03328,17.57397 -17.56977,16.78916 0.69026,-0.2199 7.21959,-8.45106 9.42001,-10.79481 17.541579,-14.39545 25.205499,32.74238 -1.17132,22.96386 -4.28286,-4.77925 -17.68024,-11.65331 -10.09728,0.25246 4.02378,4.21742 29.850537,10.61845 11.63987,8.62792 -5.97284,-8.12061 -21.3857,-2.32722 -25.05549,-1.30062 8.67453,-18.73352 22.52042,-34.76502 39.3882,-46.59362 6.655361,-4.34526 4.670653,-16.1525 0.611762,-20.95061 -8.001752,-14.25399 -37.676552,-12.6787 -42.241672,-5.39223 -11.5181,7.78934 0.40824,46.54701 -7.31398,21.32077 0.45344,-14.5633 -7.1386,-28.65236 -23.96783,-26.44447 -11.02541,0.87443 -27.47355,1.31911 -34.60949,6.59978 -6.90122,4.121 -11.70397,15.76742 1.0343,17.32927 10.02943,3.64496 -23.22119,6.63728 -24.45129,31.67785 -1.28298,16.77699 6.98136,36.7608 25.20548,39.91881 7.0065,4.19808 60.33987,-4.72668 19.27784,4.705 -10.13878,5.80056 -40.498,-3.90421 -42.6762,14.61941 2.41439,3.09877 12.9144,-9.82071 5.139,-1.08406 -0.67313,5.44498 15.58099,-8.54508 7.35126,3.59531 -1.34785,8.68866 -8.46446,11.38107 -14.59805,5.51133 -9.65401,12.34819 -10.67828,29.59301 -10.69814,44.71931 -0.51049,6.95641 4.93574,27.22739 5.24414,9.53938 0.77119,-11.77784 1.93357,-30.26193 10.69905,-36.16651 -1.15153,15.2579 -7.00289,31.29242 -7.69939,47.26739 -2.15818,22.00899 -0.95269,44.26388 2.75275,65.99445 1.03201,14.89137 1.58808,29.40676 -4.54045,43.23426 -4.56807,5.53228 10.57934,66.6132 15.45682,53.89293 60.86384,4.71593 126.96898,-9.30231 128.171675,-25.81128 z M -145.77983,511.14471 c -24.90005,-16.51292 -8.3581,-32.8067 -25.30566,-23.36486 -5.04897,3.61939 -12.60806,7.39597 -15.06607,8.20106 -1.52558,-13.23409 -16.72089,2.5388 -11.08729,-9.90874 -3.25302,-5.35392 -14.75024,0.10186 -6.78798,-9.35705 -6.99402,-5.20771 -3.18033,-4.48968 -0.75243,-7.81666 -14.36801,-2.12953 3.93461,-8.72569 0.72315,-16.13804 3.4038,-5.03129 8.667,3.5559 9.09216,-10.98294 17.87127,9.80402 33.51696,24.83812 41.37735,43.91981 3.12354,11.30338 9.33425,20.35317 17.73918,5.04422 0.97575,5.4898 -3.68379,21.26229 -9.93241,20.4032 z m -31.87605,-25.99609 c 9.78834,1.52675 14.41253,-25.28902 4.88959,-12.16866 -7.14981,16.49549 -30.56691,2.94049 -21.29122,-12.2517 7.11858,-12.24636 39.10229,20.81429 16.18861,-4.80994 -12.03151,-4.97818 -23.61378,2.74089 -22.04456,13.194 0.5617,10.91347 11.93158,18.27941 22.25758,16.0363 z m 76.80748,2.6946 c -3.5709,-8.32517 7.959423,-0.16767 0,0 z m -45.05278,-2.73794 c -5.65293,-0.918 -11.12146,-21.4663 -7.99058,-19.43789 9.03565,11.82203 28.27014,10.3141 7.99058,19.43789 z m 58.997374,-1.05078 c -2.189566,-5.80769 4.473379,3.33581 0,0 z m 4.748,-4.08487 c -11.28915,-9.56422 11.424986,6.99207 0,0 z m 4.646,-6.38142 c -10.17321,-4.67547 9.70625,2.89817 0,0 z m -5.96156,-16.04536 c 4.120746,-1.11503 3.675949,0.89574 0,0 z M -201.90688,446.68199 c -1.1322,-2.56655 2.6422,1.5361 0,0 z m 134.204884,153.34645 c 4.388441,-14.34099 -1.218748,-28.69682 -3.409259,-41.80484 1.026895,-8.52029 -15.901807,-19.19909 -7.404791,-4.37309 5.479847,13.16741 8.359286,26.49269 8.460998,40.89959 0.707685,0.34546 0.764008,11.01906 2.353052,5.27834 z M -194.15707,508.09688 c -0.74476,-1.58092 -0.7448,1.5809 0,0 z"
           id="path3216"
           style="fill:#000000" />
      </g>
      <path
         d="m -1018.4899,622.35651 c 0,0 45.63499,19.0146 147.04623,-8.87349 101.41124,-27.88809 204.09012,-74.79079 310.57193,-30.42337 106.4818,44.36742 112.82,60.84674 112.82,60.84674 0,0 6.3382,11.40877 27.88809,6.33821 21.54989,-5.07057 29.15573,-20.28225 21.54989,-35.49394 -7.60584,-15.21168 -148.31394,-58.31146 -205.35776,-67.18494 -57.04382,-8.87349 -176.20203,2.53528 -215.49889,21.54988 -39.29685,19.01461 -112.82,34.2263 -144.51102,35.49394 -31.69101,1.26764 -44.36737,-19.01461 -59.57907,-8.87348 -15.2117,10.14112 -13.944,17.74696 -7.6058,22.81752 6.3382,5.07057 12.6764,3.80293 12.6764,3.80293 z"
         id="path3243"
         style="fill:#000000;stroke:#000000;stroke-width:0.66874194px;stroke-linecap:butt;stroke-linejoin:miter;stroke-opacity:1" />
    </g>
  </g>
</svg>
