<svg xmlns="http://www.w3.org/2000/svg" xmlns:xlink="http://www.w3.org/1999/xlink" version="1.1" x="0px" y="0px" viewBox="0 0 120.965 201.322" enable-background="new 0 0 120.965 201.322" xml:space="preserve"><g><path d="M14.418,0.033c-0.832-0.219,0.297,0.692,2.09,1.952C15.954,1.06,15.231,0.247,14.418,0.033z"></path><path d="M106.547,0.033c-0.812,0.214-1.535,1.027-2.091,1.952C106.249,0.725,107.379-0.187,106.547,0.033z"></path><circle cx="39.586" cy="48.834" r="4.209"></circle><circle cx="81.378" cy="48.834" r="4.209"></circle><path d="M116.321,92.638c-0.411-6.997-3.596-12.433-4.59-13.975c0.205-0.416,0.502-1.095,0.925-2.151   c1.954-4.887,0.61-10.629-1.344-18.57c2.077-13.072-6.597-21.624-7.696-22.846s0.121-3.91,0.121-3.91s-1.344-9.285,3.91-12.461   c5.254-3.176,6.108-4.398,6.108-4.398s-5.497-0.489-6.72,0c-1.221,0.489,4.032-5.253,4.032-7.697   c-1.833,1.344-2.565,1.588-3.543,2.81c-0.978,1.221,2.443-6.353,2.443-7.331c0-0.977-5.438,2.077-6.385,3.055   c-0.614,0.635-0.158-1.464,0.873-3.18c-3.208,2.254-8.538,5.623-8.538,5.623s-7.574,5.986-7.941,9.163   c-0.365,3.176-10.994,0.244-13.927-0.245c-2.933-0.488-11.606-1.465-13.562-1.588c0,0-0.002,0.491-0.006,1.409   c-0.004-0.918-0.006-1.409-0.006-1.409c-1.955,0.123-10.63,1.1-13.562,1.588c-2.932,0.489-13.561,3.421-13.927,0.245   s-7.94-9.163-7.94-9.163s-5.33-3.369-8.539-5.623c1.031,1.716,1.488,3.814,0.873,3.18c-0.945-0.978-6.385-4.032-6.385-3.055   c0,0.978,3.422,8.552,2.443,7.331c-0.977-1.222-1.71-1.466-3.543-2.81c0,2.443,5.254,8.186,4.032,7.697s-6.72,0-6.72,0   s0.855,1.222,6.109,4.398c5.253,3.177,3.908,12.461,3.908,12.461s1.223,2.688,0.123,3.91s-9.773,9.773-7.697,22.846   c-1.955,7.941-3.299,13.684-1.344,18.57c0.424,1.057,0.72,1.735,0.926,2.151c-0.994,1.542-4.18,6.978-4.59,13.975   c0,0-4.766,6.964-4.643,12.706c0.121,5.742,11.605,33.841,16.736,40.683c5.131,6.841,5.621,16.37,10.018,16.004   c4.398-0.366,6.109,8.43,8.675,13.438c2.565,5.01,8.919,17.349,10.629,18.448c1.71,1.099,3.421,3.298,2.565,0   c-0.855-3.299,2.566,4.52,4.521,5.497s2.565,1.711,1.222-3.787s2.811,3.421,2.811,3.421s2.443,3.787,3.299,1.589   c0.002-0.006,0.004-0.021,0.006-0.028c0.002,0.008,0.004,0.022,0.006,0.028c0.855,2.198,3.299-1.589,3.299-1.589   s4.154-8.919,2.811-3.421s-0.734,4.765,1.221,3.787s5.376-8.796,4.521-5.497c-0.855,3.298,0.854,1.099,2.564,0   c1.711-1.1,8.064-13.438,10.629-18.448c2.566-5.009,4.276-13.805,8.674-13.438c4.398,0.366,4.887-9.163,10.019-16.004   c5.132-6.842,16.615-34.94,16.737-40.683C121.086,99.602,116.321,92.638,116.321,92.638z M34.061,153.387   c-0.641,0.917,0,4.766,0,7.239s-1.832-1.741-3.299-5.864c-1.465-4.123,0-4.856,0-4.856   C34.886,147.706,34.704,152.471,34.061,153.387z M39.245,152.386c-0.715,1.021,0,5.311,0,8.067c0,2.758-2.043-1.94-3.677-6.535   c-1.634-4.596,0-5.413,0-5.413C40.164,146.054,39.959,151.364,39.245,152.386z M44.754,155.402   c-1.465,4.124-3.298,8.339-3.298,5.865c0-2.475,0.642-6.322,0-7.239c-0.642-0.916-0.825-5.681,3.298-3.481   C44.754,150.547,46.221,151.279,44.754,155.402z M48.806,61.973c-4.204,6.321-13.622,7.447-21.039,2.515   S17.747,50.435,21.95,44.113c1.711-2.574,4.289-4.286,7.242-5.079c5.254,1.683,13.838,4.857,19.848,9.212   C51.394,52.75,51.493,57.933,48.806,61.973z M60.654,90.926v2.921c0.03,0.598,0.032,1.175,0,1.724v-1.724   c-0.03-0.584-0.089-1.188-0.171-1.81c-0.083,0.62-0.141,1.226-0.172,1.809v1.725c-0.032-0.55-0.029-1.126,0-1.725v-2.92   c-1.645-9.475-8.277-21.928-8.277-21.928l8.277-8.447v-0.349l0.172,0.175l0.171-0.175v0.349l8.276,8.447   C68.93,68.998,62.298,81.451,60.654,90.926z M79.508,154.028c-0.641,0.917,0,4.765,0,7.239c0,2.474-1.832-1.741-3.299-5.865   c-1.465-4.123,0-4.855,0-4.855C80.333,148.348,80.151,153.112,79.508,154.028z M85.397,153.918   c-1.633,4.595-3.676,9.293-3.676,6.535c0-2.757,0.715-7.047,0-8.067c-0.715-1.021-0.92-6.332,3.676-3.881   C85.397,148.505,87.032,149.322,85.397,153.918z M90.202,154.762c-1.465,4.123-3.299,8.338-3.299,5.864s0.643-6.322,0-7.239   c-0.641-0.916-0.824-5.681,3.299-3.481C90.202,149.905,91.668,150.639,90.202,154.762z M93.198,64.488   c-7.416,4.932-16.836,3.806-21.039-2.515c-2.686-4.04-2.588-9.223-0.232-13.726c6.01-4.355,14.594-7.529,19.846-9.212   c2.955,0.792,5.532,2.504,7.244,5.079C103.219,50.435,100.614,59.557,93.198,64.488z"></path></g></svg>